<svg xmlns="http://www.w3.org/2000/svg" viewBox="0 0 119.88 119.88" style="enable-background:new 0 0 119.88 119.88" xml:space="preserve"><path d="M92.652 119.88H28.47c-6.042 0-10.956-4.914-10.956-10.952L8.423 66.246c-3.435-1.703-5.691-5.177-5.691-9.056 0-5.669 4.611-10.276 10.276-10.276h93.864c5.665 0 10.276 4.607 10.276 10.276 0 3.317-1.601 6.354-4.278 8.266l-9.337 44.166c.075 5.344-4.839 10.258-10.881 10.258zM13.008 53.653a3.542 3.542 0 0 0-3.536 3.536c0 1.536 1.11 2.896 2.703 3.3a3.362 3.362 0 0 1 2.457 2.571l9.547 45.175c.075 3.018 1.966 4.905 4.291 4.905h64.182a4.218 4.218 0 0 0 4.217-4.212l9.71-46.289a3.365 3.365 0 0 1 1.808-2.334c1.246-.605 2.023-1.808 2.023-3.115a3.542 3.542 0 0 0-3.537-3.536H13.008z"/><path d="M37.123 100.121a2.378 2.378 0 0 1-2.371 2.371h-.653a2.378 2.378 0 0 1-2.371-2.371V72.368a2.378 2.378 0 0 1 2.371-2.371h.653a2.378 2.378 0 0 1 2.371 2.371v27.753zm17.36 0a2.378 2.378 0 0 1-2.371 2.371h-.653a2.379 2.379 0 0 1-2.372-2.371V72.368a2.378 2.378 0 0 1 2.372-2.371h.653a2.378 2.378 0 0 1 2.371 2.371v27.753zm17.361 0a2.378 2.378 0 0 1-2.371 2.371h-.654a2.378 2.378 0 0 1-2.371-2.371V72.368a2.378 2.378 0 0 1 2.371-2.371h.654a2.378 2.378 0 0 1 2.371 2.371v27.753zm17.361 0a2.378 2.378 0 0 1-2.371 2.371h-.654a2.379 2.379 0 0 1-2.372-2.371V72.368a2.379 2.379 0 0 1 2.372-2.371h.653a2.378 2.378 0 0 1 2.371 2.371v27.753zM28.027 34.868c2.25-15.669 15.69-27.723 31.98-27.723 16.291 0 29.732 12.055 31.982 27.723.328 5.35 7.22 4.494 7.22 0C96.915 15.24 80.253 0 60.008 0c-20.244 0-36.907 15.24-39.2 34.868-.001 5.565 7.307 5.779 7.219 0z"/></svg>