<svg xmlns="http://www.w3.org/2000/svg" version="1.0" viewBox="0 0 48 48" xml:space="preserve"><path d="M17 37c2.206 0 4-1.794 4-4v-4c0-2.206-1.794-4-4-4s-4 1.794-4 4v4c0 2.206 1.794 4 4 4zm-2-8c0-1.103.897-2 2-2s2 .897 2 2v4c0 1.103-.897 2-2 2s-2-.897-2-2v-4zm8-5v9c0 2.206 1.794 4 4 4s4-1.794 4-4v-9c0-2.206-1.794-4-4-4s-4 1.794-4 4zm6 0v9c0 1.103-.897 2-2 2s-2-.897-2-2v-9c0-1.103.897-2 2-2s2 .897 2 2zm8-9c-2.206 0-4 1.794-4 4v14c0 2.206 1.794 4 4 4s4-1.794 4-4V19c0-2.206-1.794-4-4-4zm2 18c0 1.103-.897 2-2 2s-2-.897-2-2V19c0-1.103.897-2 2-2s2 .897 2 2v14zM15 20c0-1.103.897-2 2-2 .08 0 .155.014.232.023L22.2 11.4c.332-.44.958-.531 1.4-.2l2.615 1.961c.241-.103.506-.161.785-.161.091 0 .179.015.267.027l5.944-7.641a.999.999 0 0 1 1.497-.093l1.782 1.782c.163-.044.332-.075.51-.075 1.103 0 2 .897 2 2s-.897 2-2 2-2-.897-2-2c0-.178.031-.347.074-.511l-.981-.981-5.243 6.74c.095.233.15.486.15.752 0 1.103-.897 2-2 2s-2-.897-2-2c0-.08.014-.155.024-.233L23.2 13.4l-4.362 5.815A2.002 2.002 0 0 1 17 22c-1.103 0-2-.897-2-2zm23 19H11V10c0-1.654-1.346-3-3-3s-3 1.346-3 3H4a1 1 0 0 0 0 2h1v3H4a1 1 0 0 0 0 2h1v3H4a1 1 0 0 0 0 2h1v3H4a1 1 0 1 0 0 2h1v3H4a1 1 0 1 0 0 2h1v3H4a1 1 0 1 0 0 2h1v5c0 1.654 1.346 3 3 3h30c1.654 0 3-1.346 3-3s-1.346-3-3-3zm0 4H8c-.551 0-1-.448-1-1V10c0-.551.449-1 1-1s1 .449 1 1v30a1 1 0 0 0 1 1h28a1 1 0 0 1 0 2z"/></svg>